<?xml version="1.0" standalone="no"?>
<!DOCTYPE svg PUBLIC "-//W3C//DTD SVG 20010904//EN"
 "http://www.w3.org/TR/2001/REC-SVG-20010904/DTD/svg10.dtd">
<svg version="1.0" xmlns="http://www.w3.org/2000/svg"
 width="512.000000pt" height="512.000000pt" viewBox="0 0 512.000000 512.000000"
 preserveAspectRatio="xMidYMid meet">

<g transform="translate(0.000000,512.000000) scale(0.100000,-0.100000)"
fill="#000000" stroke="none">
<path d="M1365 4465 c-203 -44 -367 -175 -451 -360 l-25 -55 -313 0 c-308 0
-314 0 -357 -23 -24 -13 -57 -43 -74 -66 -27 -39 -30 -50 -30 -120 0 -68 3
-82 27 -117 15 -21 44 -50 65 -64 l36 -25 323 -5 323 -5 35 -70 c104 -207 302
-336 536 -352 298 -19 579 188 654 483 20 79 20 229 0 308 -29 115 -79 202
-168 292 -66 67 -98 91 -166 123 -139 67 -280 86 -415 56z m247 -451 c161
-113 97 -366 -97 -382 -201 -17 -315 225 -169 359 53 48 84 60 156 56 56 -2
74 -8 110 -33z"/>
<path d="M2459 4027 c-24 -13 -57 -43 -74 -66 -27 -39 -30 -50 -30 -120 0 -68
3 -82 27 -117 15 -21 44 -50 65 -64 l37 -25 1196 0 1196 0 37 25 c21 14 50 43
65 64 24 35 27 49 27 116 0 67 -3 81 -27 116 -15 21 -44 50 -65 64 l-37 25
-1186 3 -1186 2 -45 -23z"/>
<path d="M3276 3184 c-322 -69 -543 -384 -496 -706 45 -313 286 -535 600 -555
245 -15 484 123 598 344 l43 82 428 3 427 3 37 25 c21 14 50 43 65 64 24 35
27 49 27 116 0 67 -3 81 -27 116 -15 21 -44 50 -65 64 l-37 25 -428 3 -429 3
-15 36 c-55 131 -176 258 -306 323 -138 67 -275 85 -422 54z m256 -450 c162
-113 97 -366 -97 -382 -197 -16 -310 209 -177 352 69 74 193 87 274 30z"/>
<path d="M219 2747 c-24 -13 -57 -43 -74 -66 -27 -39 -30 -50 -30 -120 0 -68
3 -82 27 -117 15 -21 44 -50 65 -64 l37 -25 1065 -3 c749 -2 1077 0 1104 8 20
6 54 25 74 43 114 100 90 277 -49 348 -36 18 -74 19 -1106 19 l-1069 0 -44
-23z"/>
<path d="M1782 1905 c-86 -19 -200 -76 -272 -136 -66 -55 -150 -167 -176 -235
l-17 -44 -527 0 -527 0 -44 -23 c-24 -13 -57 -43 -74 -66 -27 -39 -30 -50 -30
-120 0 -68 3 -82 27 -117 15 -21 44 -50 65 -64 l37 -25 536 -3 537 -2 17 -44
c26 -69 110 -180 176 -235 113 -94 267 -151 410 -151 349 0 640 291 640 640 0
405 -381 711 -778 625z m252 -445 c20 -14 49 -43 64 -64 24 -35 27 -49 27
-116 0 -67 -3 -81 -27 -116 -15 -21 -44 -50 -65 -64 -31 -21 -48 -25 -113 -25
-65 0 -82 4 -113 25 -81 55 -118 161 -88 253 14 41 72 104 115 123 50 23 155
14 200 -16z"/>
<path d="M2900 1474 c-173 -75 -161 -342 18 -394 26 -8 334 -10 998 -8 l960 3
37 25 c21 14 50 43 65 64 24 35 27 49 27 116 0 67 -3 81 -27 116 -15 21 -44
50 -65 64 l-37 25 -970 2 c-851 2 -975 0 -1006 -13z"/>
</g>
</svg>
